<svg width="190" height="40" viewBox="0 0 190 40" fill="none" xmlns="http://www.w3.org/2000/svg">
<path d="M35.213 11.501L35.206 6.288L25.586 0V4.022L31.931 8.2L31.936 11.402L28.988 13.398L26.977 11.931V9.446L23.7 7.204V11.727L18.505 14.915L18.495 23.335L14.822 25.403L12.937 23.926V21.488L15.169 19.959V19.939V16.166L11.152 18.854L8.081 16.856L5.276 18.693L9.659 21.694V23.536L6.5 25.674L3.277 23.492V16.23L8.062 12.991L8.066 9.875L14.203 13.827L19.361 10.394L16.216 8.559L14.159 9.947L9.677 6.983L14.731 4.036L19.11 6.603V2.775L14.736 0.211L4.794 6.008L4.787 11.223L0 14.465V25.257L4.787 28.499L4.794 33.714L14.414 40V35.981L8.069 31.803L8.064 28.601L11.012 26.605L13.023 28.072V30.557L16.3 32.798V28.275L21.569 25.088L21.628 16.667L25.178 14.599L27.063 16.076V18.514L24.831 20.043V20.063V23.837L28.848 21.148L31.919 23.146L34.724 21.309L30.34 18.306V16.466L33.5 14.329L36.723 16.511V23.772L31.939 27.012L31.934 30.127L25.797 26.173L20.639 29.584L23.784 31.416L25.841 30.055L30.323 33.019L25.269 35.966L20.89 33.399V37.225L25.264 39.789L35.206 33.995L35.213 28.779L40 25.537V14.743L35.213 11.501Z" fill="url(#paint0_linear_25_2)"/>
<path d="M55.248 13.152C55.248 12.752 55.312 12.408 55.44 12.12C55.584 11.816 55.768 11.56 55.992 11.352C56.216 11.144 56.472 10.992 56.76 10.896C57.048 10.784 57.352 10.728 57.672 10.728C57.992 10.728 58.296 10.784 58.584 10.896C58.872 10.992 59.128 11.144 59.352 11.352C59.576 11.56 59.752 11.816 59.88 12.12C60.024 12.408 60.096 12.752 60.096 13.152V18.672L65.736 11.76C65.976 11.472 66.24 11.248 66.528 11.088C66.832 10.928 67.136 10.824 67.44 10.776C67.76 10.728 68.072 10.736 68.376 10.8C68.696 10.864 68.976 10.976 69.216 11.136C69.488 11.312 69.712 11.536 69.888 11.808C70.064 12.08 70.176 12.376 70.224 12.696C70.272 13 70.256 13.312 70.176 13.632C70.096 13.952 69.936 14.24 69.696 14.496L65.16 19.56L71.856 30.144H66.288L62.016 23.064L60.096 25.2V30.144H55.248V13.152ZM78.9244 16.44C78.9084 16.888 79.1644 17.272 79.6924 17.592C80.2204 17.912 80.9644 18.232 81.9244 18.552L83.1004 18.96C83.8044 19.216 84.4364 19.536 84.9964 19.92C85.5724 20.304 86.0604 20.76 86.4604 21.288C86.8604 21.8 87.1564 22.384 87.3484 23.04C87.5404 23.68 87.6124 24.384 87.5644 25.152C87.4524 26.864 86.7564 28.192 85.4764 29.136C84.2124 30.08 82.4844 30.552 80.2924 30.552C79.2204 30.552 78.1884 30.432 77.1964 30.192C76.2044 29.968 75.3804 29.6 74.7244 29.088C74.5004 28.896 74.3084 28.68 74.1484 28.44C73.9884 28.184 73.8684 27.92 73.7884 27.648C73.7244 27.376 73.7164 27.096 73.7644 26.808C73.8124 26.504 73.9244 26.216 74.1004 25.944C74.2764 25.672 74.5244 25.464 74.8444 25.32C75.1644 25.176 75.4844 25.096 75.8044 25.08C76.2204 25.064 76.5484 25.128 76.7884 25.272C77.0444 25.416 77.2844 25.552 77.5084 25.68C77.7804 25.856 78.1324 26.008 78.5644 26.136C78.9964 26.248 79.6204 26.304 80.4364 26.304C81.1084 26.304 81.6284 26.184 81.9964 25.944C82.3644 25.704 82.5564 25.32 82.5724 24.792C82.5724 24.568 82.4844 24.352 82.3084 24.144C82.1324 23.936 81.8764 23.744 81.5404 23.568C81.2204 23.392 80.8444 23.224 80.4124 23.064C79.9804 22.888 79.5164 22.72 79.0204 22.56C78.8284 22.496 78.6204 22.424 78.3964 22.344C78.1884 22.264 78.0124 22.192 77.8684 22.128C76.9564 21.744 76.2204 21.272 75.6604 20.712C75.1004 20.136 74.6764 19.52 74.3884 18.864C74.1164 18.192 73.9724 17.504 73.9564 16.8C73.9564 16.096 74.0604 15.432 74.2684 14.808C74.6844 13.512 75.4524 12.512 76.5724 11.808C77.7084 11.104 79.1004 10.752 80.7484 10.752C81.3724 10.752 81.9164 10.784 82.3804 10.848C82.8604 10.896 83.2764 10.968 83.6284 11.064C83.9964 11.144 84.3084 11.248 84.5644 11.376C84.8364 11.488 85.0844 11.6 85.3084 11.712C85.8684 12.016 86.3004 12.44 86.6044 12.984C86.9244 13.528 86.9964 14.088 86.8204 14.664C86.6604 15.16 86.3884 15.512 86.0044 15.72C85.6364 15.928 85.2204 16.032 84.7564 16.032C84.5804 16.032 84.3804 16 84.1564 15.936C83.9324 15.872 83.7644 15.8 83.6524 15.72C83.3644 15.528 82.9964 15.36 82.5484 15.216C82.1004 15.072 81.5164 15 80.7964 15C80.2204 15 79.7644 15.12 79.4284 15.36C79.1084 15.584 78.9404 15.944 78.9244 16.44ZM90.4879 28.08C90.4879 27.328 90.7119 26.736 91.1599 26.304C91.6079 25.872 92.2399 25.656 93.0559 25.656C93.8719 25.656 94.5039 25.88 94.9519 26.328C95.3999 26.76 95.6239 27.344 95.6239 28.08C95.6239 28.816 95.3999 29.408 94.9519 29.856C94.5039 30.288 93.8719 30.504 93.0559 30.504C92.2399 30.504 91.6079 30.288 91.1599 29.856C90.7119 29.424 90.4879 28.832 90.4879 28.08ZM112.118 22.92C112.118 23.48 112.206 23.976 112.382 24.408C112.574 24.824 112.822 25.176 113.126 25.464C113.446 25.736 113.806 25.944 114.206 26.088C114.606 26.232 115.022 26.304 115.454 26.304C116.014 26.304 116.494 26.264 116.894 26.184C117.31 26.104 117.678 25.992 117.998 25.848C118.174 25.768 118.366 25.672 118.574 25.56C118.798 25.448 119.022 25.376 119.246 25.344C119.678 25.264 120.07 25.296 120.422 25.44C120.774 25.584 121.07 25.856 121.31 26.256C121.614 26.752 121.686 27.248 121.526 27.744C121.382 28.24 121.102 28.656 120.686 28.992C120.014 29.536 119.206 29.928 118.262 30.168C117.318 30.424 116.382 30.552 115.454 30.552C114.414 30.552 113.398 30.416 112.406 30.144C111.414 29.872 110.526 29.44 109.742 28.848C108.974 28.24 108.35 27.472 107.87 26.544C107.406 25.6 107.174 24.464 107.174 23.136V18.144C107.174 16.816 107.406 15.688 107.87 14.76C108.35 13.816 108.974 13.048 109.742 12.456C110.526 11.848 111.414 11.408 112.406 11.136C113.398 10.864 114.414 10.728 115.454 10.728C116.526 10.728 117.462 10.84 118.262 11.064C119.078 11.288 119.718 11.568 120.182 11.904C120.678 12.256 121.022 12.696 121.214 13.224C121.406 13.736 121.358 14.248 121.07 14.76C120.83 15.176 120.51 15.472 120.11 15.648C119.71 15.824 119.302 15.872 118.886 15.792C118.614 15.744 118.366 15.672 118.142 15.576C117.934 15.464 117.742 15.368 117.566 15.288C117.278 15.176 116.974 15.096 116.654 15.048C116.35 15 115.95 14.976 115.454 14.976C115.022 14.976 114.606 15.048 114.206 15.192C113.806 15.336 113.446 15.552 113.126 15.84C112.822 16.112 112.574 16.464 112.382 16.896C112.206 17.312 112.118 17.8 112.118 18.36V22.92ZM133.812 30.144V21.456C133.812 21.056 133.748 20.72 133.62 20.448C133.492 20.16 133.332 19.928 133.14 19.752C132.948 19.576 132.732 19.456 132.492 19.392C132.268 19.312 132.052 19.272 131.844 19.272C131.636 19.272 131.412 19.312 131.172 19.392C130.948 19.456 130.74 19.568 130.548 19.728C130.356 19.888 130.196 20.104 130.068 20.376C129.94 20.632 129.868 20.952 129.852 21.336V30.144H124.98V12.264C124.98 11.864 125.044 11.52 125.172 11.232C125.316 10.928 125.5 10.68 125.724 10.488C125.948 10.28 126.204 10.128 126.492 10.032C126.796 9.92 127.108 9.864 127.428 9.864C127.748 9.864 128.052 9.92 128.34 10.032C128.628 10.128 128.884 10.28 129.108 10.488C129.332 10.68 129.508 10.928 129.636 11.232C129.78 11.52 129.852 11.864 129.852 12.264V16.296C130.268 15.928 130.74 15.648 131.268 15.456C131.812 15.248 132.404 15.144 133.044 15.144C133.828 15.144 134.564 15.256 135.252 15.48C135.956 15.688 136.564 16.048 137.076 16.56C137.588 17.072 137.996 17.752 138.3 18.6C138.604 19.448 138.756 20.504 138.756 21.768V30.144H133.812ZM142.328 21.744C142.328 20.448 142.536 19.376 142.952 18.528C143.368 17.68 143.912 17 144.584 16.488C145.256 15.976 146 15.616 146.816 15.408C147.648 15.2 148.472 15.096 149.288 15.096C150.088 15.096 150.896 15.2 151.712 15.408C152.544 15.616 153.296 15.976 153.968 16.488C154.64 17 155.184 17.68 155.6 18.528C156.032 19.376 156.248 20.448 156.248 21.744V23.952C156.248 25.248 156.032 26.32 155.6 27.168C155.184 28.016 154.64 28.696 153.968 29.208C153.296 29.72 152.544 30.08 151.712 30.288C150.896 30.496 150.088 30.6 149.288 30.6C148.488 30.6 147.672 30.496 146.84 30.288C146.024 30.08 145.28 29.72 144.608 29.208C143.936 28.696 143.384 28.016 142.952 27.168C142.536 26.32 142.328 25.248 142.328 23.952V21.744ZM151.424 21.528C151.424 21.096 151.36 20.736 151.232 20.448C151.104 20.144 150.936 19.896 150.728 19.704C150.536 19.512 150.312 19.376 150.056 19.296C149.8 19.2 149.544 19.152 149.288 19.152C149.032 19.152 148.776 19.2 148.52 19.296C148.264 19.376 148.032 19.512 147.824 19.704C147.632 19.896 147.472 20.144 147.344 20.448C147.216 20.736 147.152 21.096 147.152 21.528V24.168C147.152 24.6 147.216 24.968 147.344 25.272C147.472 25.56 147.632 25.8 147.824 25.992C148.032 26.184 148.264 26.328 148.52 26.424C148.776 26.504 149.032 26.544 149.288 26.544C149.544 26.544 149.8 26.504 150.056 26.424C150.312 26.328 150.536 26.184 150.728 25.992C150.936 25.8 151.104 25.56 151.232 25.272C151.36 24.968 151.424 24.6 151.424 24.168V21.528ZM160.017 17.712C160.017 16.88 160.257 16.272 160.737 15.888C161.233 15.504 161.817 15.312 162.489 15.312C163.161 15.312 163.737 15.504 164.217 15.888C164.713 16.272 164.961 16.88 164.961 17.712V30.144H160.017V17.712ZM159.993 12.072C159.993 11.288 160.241 10.728 160.737 10.392C161.233 10.04 161.817 9.864 162.489 9.864C163.161 9.864 163.745 10.04 164.241 10.392C164.737 10.728 164.985 11.288 164.985 12.072C164.985 12.472 164.913 12.816 164.769 13.104C164.641 13.376 164.465 13.6 164.241 13.776C164.017 13.952 163.753 14.08 163.449 14.16C163.145 14.24 162.825 14.28 162.489 14.28C162.153 14.28 161.833 14.24 161.529 14.16C161.225 14.08 160.961 13.952 160.737 13.776C160.513 13.6 160.329 13.376 160.185 13.104C160.057 12.816 159.993 12.472 159.993 12.072Z" fill="url(#paint1_linear_25_2)"/>
<defs>
<linearGradient id="paint0_linear_25_2" x1="39.5" y1="32.5" x2="-0.500002" y2="4.5" gradientUnits="userSpaceOnUse">
<stop stop-color="#9847FF"/>
<stop offset="1" stop-color="white"/>
</linearGradient>
<linearGradient id="paint1_linear_25_2" x1="38" y1="3.03448" x2="201.629" y2="49.0703" gradientUnits="userSpaceOnUse">
<stop stop-color="white"/>
<stop offset="0.400516" stop-color="#DCC0FF"/>
<stop offset="1" stop-color="#BF8DFF"/>
</linearGradient>
</defs>
</svg>
